<?xml version="1.0" encoding="utf-8"?>
<!-- Generator: Adobe Illustrator 27.0.0, SVG Export Plug-In . SVG Version: 6.00 Build 0)  -->
<svg version="1.1" id="Layer_1" xmlns="http://www.w3.org/2000/svg" xmlns:xlink="http://www.w3.org/1999/xlink" x="0px" y="0px"
	 viewBox="0 0 303.2 303.2" style="enable-background:new 0 0 303.2 303.2;" xml:space="preserve">
<style type="text/css">
	.st0{fill:none;stroke:#000000;stroke-width:10;stroke-miterlimit:10;}
	.st1{fill:none;stroke:#000000;stroke-width:4;stroke-miterlimit:10;}
</style>
<g>
	<g>
		<path class="st0" d="M150,10.8c-34.4,0-57,14.3-57,27.9v36.9h57v13H43c-13.7,0-27.9,22.6-27.9,57s14.3,57,27.9,57h43.3v-27.1
			c0-18.2,14.8-33.2,33.2-33.2h60.7c14.7,0,26.7-12,26.7-26.7V68.8l0,0V38.6C207,25.1,184.3,10.8,150,10.8z"/>
		<circle class="st1" cx="119.1" cy="49.3" r="8.2"/>
	</g>
	<g>
		<path class="st0" d="M261.8,92.6h-43.4v27.1c0,18.2-14.8,33.2-33.2,33.2h-60.7c-14.7,0-26.7,12-26.7,26.7v29.9l0,0v47.1
			c0,13.6,22.6,27.9,57,27.9s57-14.3,57-27.9v-36.7l-57-0.5v-12.7h106.9c13.7,0,27.9-22.6,27.9-57S275.5,92.6,261.8,92.6z"/>
		<circle class="st1" cx="185.9" cy="245.9" r="8.2"/>
	</g>
</g>
</svg>
